<mxfile host="app.diagrams.net" modified="2023-01-02T08:19:18.614Z" agent="5.0 (Windows)" etag="2b2B_ylCPFTEm6_PbAXT" version="20.5.1" type="github">
  <diagram id="JQW-utt17Xb6EdtMVTP2" name="Page-1">
    <mxGraphModel dx="1888" dy="495" grid="1" gridSize="10" guides="1" tooltips="1" connect="1" arrows="1" fold="1" page="1" pageScale="1" pageWidth="850" pageHeight="1100" math="0" shadow="0">
      <root>
        <mxCell id="0" />
        <mxCell id="1" parent="0" />
        <mxCell id="V55V4ISfxPS5HayoCuuF-1" value="" style="rounded=0;whiteSpace=wrap;html=1;strokeWidth=2;fontSize=14;fontColor=#FF0080;" parent="1" vertex="1">
          <mxGeometry x="50" y="20" width="950" height="1310" as="geometry" />
        </mxCell>
        <mxCell id="V55V4ISfxPS5HayoCuuF-4" value="&lt;font style=&quot;font-size: 14px;&quot; color=&quot;#FF6666&quot;&gt;&lt;b&gt;&lt;span&gt;Administrator&lt;/span&gt;&lt;/b&gt;&lt;/font&gt;" style="shape=umlActor;verticalLabelPosition=bottom;verticalAlign=top;html=1;outlineConnect=0;strokeWidth=2;" parent="1" vertex="1">
          <mxGeometry x="-20" y="460" width="40" height="80" as="geometry" />
        </mxCell>
        <mxCell id="V55V4ISfxPS5HayoCuuF-5" value="&lt;span&gt;Register &lt;/span&gt;" style="ellipse;whiteSpace=wrap;html=1;fontSize=14;fillColor=#dae8fc;strokeColor=#6c8ebf;" parent="1" vertex="1">
          <mxGeometry x="195" y="70" width="110" height="40" as="geometry" />
        </mxCell>
        <mxCell id="V55V4ISfxPS5HayoCuuF-6" value="login" style="ellipse;whiteSpace=wrap;html=1;fontSize=14;fillColor=#dae8fc;strokeColor=#6c8ebf;" parent="1" vertex="1">
          <mxGeometry x="240" y="160" width="100" height="30" as="geometry" />
        </mxCell>
        <mxCell id="V55V4ISfxPS5HayoCuuF-7" value="&amp;lt;&amp;lt;include&amp;gt;&amp;gt;" style="html=1;verticalAlign=bottom;labelBackgroundColor=none;endArrow=open;endFill=0;dashed=1;rounded=0;fontSize=14;fontColor=#000000;fillColor=#dae8fc;strokeColor=#6c8ebf;entryX=0.618;entryY=1.075;entryDx=0;entryDy=0;entryPerimeter=0;" parent="1" source="V55V4ISfxPS5HayoCuuF-6" target="V55V4ISfxPS5HayoCuuF-5" edge="1">
          <mxGeometry x="-0.3123" y="-5" width="160" relative="1" as="geometry">
            <mxPoint x="170" y="130" as="sourcePoint" />
            <mxPoint x="330" y="130" as="targetPoint" />
            <mxPoint as="offset" />
          </mxGeometry>
        </mxCell>
        <mxCell id="V55V4ISfxPS5HayoCuuF-8" value="" style="endArrow=none;html=1;rounded=0;fontSize=14;fontColor=#000000;exitX=0.5;exitY=0.5;exitDx=0;exitDy=0;exitPerimeter=0;entryX=0.091;entryY=0.775;entryDx=0;entryDy=0;entryPerimeter=0;" parent="1" source="V55V4ISfxPS5HayoCuuF-4" target="V55V4ISfxPS5HayoCuuF-5" edge="1">
          <mxGeometry width="50" height="50" relative="1" as="geometry">
            <mxPoint x="251.42857142857156" y="40" as="sourcePoint" />
            <mxPoint x="290" y="120" as="targetPoint" />
          </mxGeometry>
        </mxCell>
        <mxCell id="V55V4ISfxPS5HayoCuuF-9" value="" style="endArrow=none;html=1;rounded=0;fontSize=14;fontColor=#000000;entryX=0;entryY=0.5;entryDx=0;entryDy=0;exitX=0.5;exitY=0.5;exitDx=0;exitDy=0;exitPerimeter=0;" parent="1" source="V55V4ISfxPS5HayoCuuF-4" target="V55V4ISfxPS5HayoCuuF-6" edge="1">
          <mxGeometry width="50" height="50" relative="1" as="geometry">
            <mxPoint x="150" y="300" as="sourcePoint" />
            <mxPoint x="220.71067811865476" y="250" as="targetPoint" />
          </mxGeometry>
        </mxCell>
        <mxCell id="V55V4ISfxPS5HayoCuuF-10" value="logout" style="ellipse;whiteSpace=wrap;html=1;fontSize=14;fillColor=#dae8fc;strokeColor=#6c8ebf;" parent="1" vertex="1">
          <mxGeometry x="460" y="160" width="100" height="40" as="geometry" />
        </mxCell>
        <mxCell id="V55V4ISfxPS5HayoCuuF-11" value="&amp;lt;&amp;lt;include&amp;gt;&amp;gt;" style="html=1;verticalAlign=bottom;labelBackgroundColor=none;endArrow=open;endFill=0;dashed=1;rounded=0;fontSize=14;fontColor=#000000;exitX=0;exitY=0.5;exitDx=0;exitDy=0;entryX=1;entryY=0.5;entryDx=0;entryDy=0;fillColor=#dae8fc;strokeColor=#6c8ebf;" parent="1" source="V55V4ISfxPS5HayoCuuF-10" target="V55V4ISfxPS5HayoCuuF-6" edge="1">
          <mxGeometry width="160" relative="1" as="geometry">
            <mxPoint x="230" y="260" as="sourcePoint" />
            <mxPoint x="390" y="260" as="targetPoint" />
          </mxGeometry>
        </mxCell>
        <mxCell id="V55V4ISfxPS5HayoCuuF-12" value="&lt;p&gt;&lt;/p&gt;&lt;p&gt;&lt;span&gt;Gym management&lt;/span&gt;&lt;/p&gt;&lt;p&gt;&lt;/p&gt;" style="ellipse;whiteSpace=wrap;html=1;fontSize=14;fillColor=#dae8fc;strokeColor=#6c8ebf;" parent="1" vertex="1">
          <mxGeometry x="250" y="280" width="140" height="40" as="geometry" />
        </mxCell>
        <mxCell id="V55V4ISfxPS5HayoCuuF-13" value="" style="endArrow=none;html=1;rounded=0;fontSize=14;fontColor=#000000;entryX=0;entryY=0.5;entryDx=0;entryDy=0;exitX=0.5;exitY=0.5;exitDx=0;exitDy=0;exitPerimeter=0;" parent="1" source="V55V4ISfxPS5HayoCuuF-4" target="V55V4ISfxPS5HayoCuuF-12" edge="1">
          <mxGeometry width="50" height="50" relative="1" as="geometry">
            <mxPoint x="80" y="260" as="sourcePoint" />
            <mxPoint x="200" y="270" as="targetPoint" />
          </mxGeometry>
        </mxCell>
        <mxCell id="V55V4ISfxPS5HayoCuuF-14" value="" style="edgeStyle=none;html=1;endSize=12;endArrow=block;endFill=0;rounded=0;fontSize=14;fontColor=#000000;entryX=0.236;entryY=0.975;entryDx=0;entryDy=0;entryPerimeter=0;" parent="1" target="V55V4ISfxPS5HayoCuuF-12" edge="1">
          <mxGeometry width="160" relative="1" as="geometry">
            <mxPoint x="243" y="367" as="sourcePoint" />
            <mxPoint x="263" y="317" as="targetPoint" />
          </mxGeometry>
        </mxCell>
        <mxCell id="V55V4ISfxPS5HayoCuuF-15" value="" style="edgeStyle=none;html=1;endSize=12;endArrow=block;endFill=0;rounded=0;fontSize=14;fontColor=#000000;" parent="1" edge="1">
          <mxGeometry width="160" relative="1" as="geometry">
            <mxPoint x="325" y="371" as="sourcePoint" />
            <mxPoint x="324" y="321" as="targetPoint" />
          </mxGeometry>
        </mxCell>
        <mxCell id="V55V4ISfxPS5HayoCuuF-16" value="" style="edgeStyle=none;html=1;endSize=12;endArrow=block;endFill=0;rounded=0;fontSize=14;fontColor=#000000;entryX=0.757;entryY=0.975;entryDx=0;entryDy=0;entryPerimeter=0;" parent="1" source="V55V4ISfxPS5HayoCuuF-19" target="V55V4ISfxPS5HayoCuuF-12" edge="1">
          <mxGeometry width="160" relative="1" as="geometry">
            <mxPoint x="375" y="370" as="sourcePoint" />
            <mxPoint x="505" y="380" as="targetPoint" />
          </mxGeometry>
        </mxCell>
        <mxCell id="V55V4ISfxPS5HayoCuuF-17" value="Add" style="ellipse;whiteSpace=wrap;html=1;fontSize=14;fillColor=#f5f5f5;strokeColor=#666666;fontColor=#333333;" parent="1" vertex="1">
          <mxGeometry x="195" y="360" width="80" height="30" as="geometry" />
        </mxCell>
        <mxCell id="V55V4ISfxPS5HayoCuuF-18" value="update" style="ellipse;whiteSpace=wrap;html=1;fontSize=14;fillColor=#f5f5f5;strokeColor=#666666;fontColor=#333333;" parent="1" vertex="1">
          <mxGeometry x="285" y="370" width="80" height="30" as="geometry" />
        </mxCell>
        <mxCell id="V55V4ISfxPS5HayoCuuF-19" value="delete" style="ellipse;whiteSpace=wrap;html=1;fontSize=14;fontColor=#333333;fillColor=#f5f5f5;strokeColor=#666666;" parent="1" vertex="1">
          <mxGeometry x="375" y="370" width="80" height="30" as="geometry" />
        </mxCell>
        <mxCell id="V55V4ISfxPS5HayoCuuF-20" value="&lt;p&gt;&lt;span&gt;Coaches management&lt;/span&gt;&lt;/p&gt;" style="ellipse;whiteSpace=wrap;html=1;fontSize=14;fillColor=#dae8fc;strokeColor=#6c8ebf;" parent="1" vertex="1">
          <mxGeometry x="225" y="420" width="185" height="40" as="geometry" />
        </mxCell>
        <mxCell id="V55V4ISfxPS5HayoCuuF-21" value="" style="edgeStyle=none;html=1;endSize=12;endArrow=block;endFill=0;rounded=0;fontSize=14;fontColor=#000000;entryX=0.236;entryY=0.975;entryDx=0;entryDy=0;entryPerimeter=0;" parent="1" target="V55V4ISfxPS5HayoCuuF-20" edge="1">
          <mxGeometry width="160" relative="1" as="geometry">
            <mxPoint x="218" y="507" as="sourcePoint" />
            <mxPoint x="238" y="457" as="targetPoint" />
          </mxGeometry>
        </mxCell>
        <mxCell id="V55V4ISfxPS5HayoCuuF-22" value="" style="edgeStyle=none;html=1;endSize=12;endArrow=block;endFill=0;rounded=0;fontSize=14;fontColor=#000000;" parent="1" edge="1">
          <mxGeometry width="160" relative="1" as="geometry">
            <mxPoint x="300" y="511" as="sourcePoint" />
            <mxPoint x="299" y="461" as="targetPoint" />
          </mxGeometry>
        </mxCell>
        <mxCell id="V55V4ISfxPS5HayoCuuF-23" value="" style="edgeStyle=none;html=1;endSize=12;endArrow=block;endFill=0;rounded=0;fontSize=14;fontColor=#000000;entryX=0.757;entryY=0.975;entryDx=0;entryDy=0;entryPerimeter=0;" parent="1" source="V55V4ISfxPS5HayoCuuF-26" target="V55V4ISfxPS5HayoCuuF-20" edge="1">
          <mxGeometry width="160" relative="1" as="geometry">
            <mxPoint x="350" y="510" as="sourcePoint" />
            <mxPoint x="480" y="520" as="targetPoint" />
          </mxGeometry>
        </mxCell>
        <mxCell id="V55V4ISfxPS5HayoCuuF-24" value="Add" style="ellipse;whiteSpace=wrap;html=1;fontSize=14;fontColor=#333333;fillColor=#f5f5f5;strokeColor=#666666;" parent="1" vertex="1">
          <mxGeometry x="170" y="500" width="80" height="30" as="geometry" />
        </mxCell>
        <mxCell id="V55V4ISfxPS5HayoCuuF-25" value="update" style="ellipse;whiteSpace=wrap;html=1;fontSize=14;fontColor=#333333;fillColor=#f5f5f5;strokeColor=#666666;" parent="1" vertex="1">
          <mxGeometry x="260" y="510" width="80" height="30" as="geometry" />
        </mxCell>
        <mxCell id="V55V4ISfxPS5HayoCuuF-26" value="delete" style="ellipse;whiteSpace=wrap;html=1;fontSize=14;fontColor=#333333;fillColor=#f5f5f5;strokeColor=#666666;" parent="1" vertex="1">
          <mxGeometry x="350" y="510" width="80" height="30" as="geometry" />
        </mxCell>
        <mxCell id="V55V4ISfxPS5HayoCuuF-27" value="" style="endArrow=none;html=1;rounded=0;fontSize=14;fontColor=#000000;entryX=0;entryY=0.5;entryDx=0;entryDy=0;exitX=0.5;exitY=0.5;exitDx=0;exitDy=0;exitPerimeter=0;" parent="1" source="V55V4ISfxPS5HayoCuuF-4" target="V55V4ISfxPS5HayoCuuF-20" edge="1">
          <mxGeometry width="50" height="50" relative="1" as="geometry">
            <mxPoint x="80" y="440" as="sourcePoint" />
            <mxPoint x="130" y="390" as="targetPoint" />
          </mxGeometry>
        </mxCell>
        <mxCell id="V55V4ISfxPS5HayoCuuF-28" value="&lt;p&gt;&lt;span&gt;Profile management&lt;/span&gt;&lt;/p&gt;" style="ellipse;whiteSpace=wrap;html=1;fontSize=14;fillColor=#dae8fc;strokeColor=#6c8ebf;" parent="1" vertex="1">
          <mxGeometry x="247.5" y="240" width="140" height="30" as="geometry" />
        </mxCell>
        <mxCell id="V55V4ISfxPS5HayoCuuF-29" value="" style="endArrow=none;html=1;rounded=0;fontSize=14;fontColor=#000000;entryX=0;entryY=0.5;entryDx=0;entryDy=0;exitX=0.5;exitY=0.5;exitDx=0;exitDy=0;exitPerimeter=0;" parent="1" source="V55V4ISfxPS5HayoCuuF-4" target="V55V4ISfxPS5HayoCuuF-28" edge="1">
          <mxGeometry width="50" height="50" relative="1" as="geometry">
            <mxPoint x="60" y="250" as="sourcePoint" />
            <mxPoint x="200" y="250" as="targetPoint" />
          </mxGeometry>
        </mxCell>
        <mxCell id="V55V4ISfxPS5HayoCuuF-45" value="&amp;lt;&amp;lt;include&amp;gt;&amp;gt;" style="html=1;verticalAlign=bottom;labelBackgroundColor=none;endArrow=open;endFill=0;dashed=1;rounded=0;fontSize=14;fontColor=#000000;exitX=0.5;exitY=0;exitDx=0;exitDy=0;entryX=0.58;entryY=1;entryDx=0;entryDy=0;entryPerimeter=0;" parent="1" source="V55V4ISfxPS5HayoCuuF-28" target="V55V4ISfxPS5HayoCuuF-6" edge="1">
          <mxGeometry x="-0.2066" y="-10" width="160" relative="1" as="geometry">
            <mxPoint x="140" y="200" as="sourcePoint" />
            <mxPoint x="300" y="200" as="targetPoint" />
            <mxPoint as="offset" />
          </mxGeometry>
        </mxCell>
        <mxCell id="V55V4ISfxPS5HayoCuuF-61" value="&lt;b&gt;&lt;font style=&quot;font-size: 14px;&quot; color=&quot;#FF0080&quot;&gt;Customer&lt;/font&gt;&lt;/b&gt;" style="shape=umlActor;verticalLabelPosition=bottom;verticalAlign=top;html=1;outlineConnect=0;strokeWidth=2;" parent="1" vertex="1">
          <mxGeometry x="1040" y="260" width="40" height="80" as="geometry" />
        </mxCell>
        <mxCell id="V55V4ISfxPS5HayoCuuF-63" value="" style="endArrow=none;html=1;rounded=0;strokeColor=#FF0080;fontSize=14;fontColor=#FF0080;entryX=0.5;entryY=0.5;entryDx=0;entryDy=0;entryPerimeter=0;exitX=1;exitY=1;exitDx=0;exitDy=0;" parent="1" source="V55V4ISfxPS5HayoCuuF-6" target="V55V4ISfxPS5HayoCuuF-61" edge="1">
          <mxGeometry width="50" height="50" relative="1" as="geometry">
            <mxPoint x="640" y="160" as="sourcePoint" />
            <mxPoint x="820" y="90" as="targetPoint" />
          </mxGeometry>
        </mxCell>
        <mxCell id="V55V4ISfxPS5HayoCuuF-64" value="" style="endArrow=none;html=1;rounded=0;strokeColor=#FF0080;fontSize=14;fontColor=#FF0080;entryX=0.5;entryY=0.5;entryDx=0;entryDy=0;entryPerimeter=0;" parent="1" source="V55V4ISfxPS5HayoCuuF-10" target="V55V4ISfxPS5HayoCuuF-61" edge="1">
          <mxGeometry width="50" height="50" relative="1" as="geometry">
            <mxPoint x="900" y="390" as="sourcePoint" />
            <mxPoint x="950" y="340" as="targetPoint" />
          </mxGeometry>
        </mxCell>
        <mxCell id="V55V4ISfxPS5HayoCuuF-65" value="" style="endArrow=none;html=1;rounded=0;strokeColor=#FF0080;fontSize=14;fontColor=#FF0080;entryX=1;entryY=0.5;entryDx=0;entryDy=0;exitX=0.5;exitY=0.5;exitDx=0;exitDy=0;exitPerimeter=0;" parent="1" source="V55V4ISfxPS5HayoCuuF-61" target="V55V4ISfxPS5HayoCuuF-28" edge="1">
          <mxGeometry width="50" height="50" relative="1" as="geometry">
            <mxPoint x="440" y="390" as="sourcePoint" />
            <mxPoint x="490" y="340" as="targetPoint" />
          </mxGeometry>
        </mxCell>
        <mxCell id="V55V4ISfxPS5HayoCuuF-66" value="Search book" style="ellipse;whiteSpace=wrap;html=1;strokeWidth=2;fontSize=14;fillColor=#f8cecc;strokeColor=#b85450;" parent="1" vertex="1">
          <mxGeometry x="580" y="280" width="110" height="40" as="geometry" />
        </mxCell>
        <mxCell id="V55V4ISfxPS5HayoCuuF-67" value="Read book" style="ellipse;whiteSpace=wrap;html=1;strokeWidth=2;fontSize=14;fillColor=#f8cecc;strokeColor=#b85450;" parent="1" vertex="1">
          <mxGeometry x="580" y="380" width="110" height="40" as="geometry" />
        </mxCell>
        <mxCell id="V55V4ISfxPS5HayoCuuF-68" value="View book details" style="ellipse;whiteSpace=wrap;html=1;strokeWidth=2;fontSize=14;fillColor=#f8cecc;strokeColor=#b85450;" parent="1" vertex="1">
          <mxGeometry x="550" y="330" width="140" height="40" as="geometry" />
        </mxCell>
        <mxCell id="V55V4ISfxPS5HayoCuuF-69" value="Download book" style="ellipse;whiteSpace=wrap;html=1;strokeWidth=2;fontSize=14;fillColor=#f8cecc;strokeColor=#b85450;" parent="1" vertex="1">
          <mxGeometry x="580" y="430" width="110" height="40" as="geometry" />
        </mxCell>
        <mxCell id="V55V4ISfxPS5HayoCuuF-70" value="Buy book" style="ellipse;whiteSpace=wrap;html=1;strokeWidth=2;fontSize=14;fillColor=#f8cecc;strokeColor=#b85450;" parent="1" vertex="1">
          <mxGeometry x="550" y="480" width="110" height="40" as="geometry" />
        </mxCell>
        <mxCell id="V55V4ISfxPS5HayoCuuF-71" value="Shopping cart management" style="ellipse;whiteSpace=wrap;html=1;strokeWidth=2;fontSize=14;fillColor=#f8cecc;strokeColor=#b85450;" parent="1" vertex="1">
          <mxGeometry x="630" y="600" width="190" height="40" as="geometry" />
        </mxCell>
        <mxCell id="V55V4ISfxPS5HayoCuuF-72" value="" style="endArrow=none;html=1;rounded=0;strokeColor=#FF0080;fontSize=14;fontColor=#FF0080;entryX=0.5;entryY=0.5;entryDx=0;entryDy=0;entryPerimeter=0;" parent="1" source="V55V4ISfxPS5HayoCuuF-66" target="V55V4ISfxPS5HayoCuuF-61" edge="1">
          <mxGeometry width="50" height="50" relative="1" as="geometry">
            <mxPoint x="930" y="380" as="sourcePoint" />
            <mxPoint x="980" y="330" as="targetPoint" />
          </mxGeometry>
        </mxCell>
        <mxCell id="V55V4ISfxPS5HayoCuuF-73" value="" style="endArrow=none;html=1;rounded=0;strokeColor=#FF0080;fontSize=14;fontColor=#FF0080;entryX=0.5;entryY=0.5;entryDx=0;entryDy=0;entryPerimeter=0;" parent="1" source="V55V4ISfxPS5HayoCuuF-68" target="V55V4ISfxPS5HayoCuuF-61" edge="1">
          <mxGeometry width="50" height="50" relative="1" as="geometry">
            <mxPoint x="900" y="390" as="sourcePoint" />
            <mxPoint x="950" y="340" as="targetPoint" />
          </mxGeometry>
        </mxCell>
        <mxCell id="V55V4ISfxPS5HayoCuuF-74" value="" style="endArrow=none;html=1;rounded=0;strokeColor=#FF0080;fontSize=14;fontColor=#FF0080;entryX=0.5;entryY=0.5;entryDx=0;entryDy=0;entryPerimeter=0;exitX=0.918;exitY=0.25;exitDx=0;exitDy=0;exitPerimeter=0;" parent="1" source="V55V4ISfxPS5HayoCuuF-67" target="V55V4ISfxPS5HayoCuuF-61" edge="1">
          <mxGeometry width="50" height="50" relative="1" as="geometry">
            <mxPoint x="910" y="430" as="sourcePoint" />
            <mxPoint x="960" y="380" as="targetPoint" />
          </mxGeometry>
        </mxCell>
        <mxCell id="V55V4ISfxPS5HayoCuuF-75" value="" style="endArrow=none;html=1;rounded=0;strokeColor=#FF0080;fontSize=14;fontColor=#FF0080;entryX=0.5;entryY=0.5;entryDx=0;entryDy=0;entryPerimeter=0;exitX=0.8;exitY=0.15;exitDx=0;exitDy=0;exitPerimeter=0;" parent="1" source="V55V4ISfxPS5HayoCuuF-69" target="V55V4ISfxPS5HayoCuuF-61" edge="1">
          <mxGeometry width="50" height="50" relative="1" as="geometry">
            <mxPoint x="960" y="440" as="sourcePoint" />
            <mxPoint x="1010" y="390" as="targetPoint" />
          </mxGeometry>
        </mxCell>
        <mxCell id="V55V4ISfxPS5HayoCuuF-76" value="" style="endArrow=none;html=1;rounded=0;strokeColor=#FF0080;fontSize=14;fontColor=#FF0080;exitX=1;exitY=0;exitDx=0;exitDy=0;" parent="1" source="V55V4ISfxPS5HayoCuuF-70" edge="1">
          <mxGeometry width="50" height="50" relative="1" as="geometry">
            <mxPoint x="860" y="540" as="sourcePoint" />
            <mxPoint x="1060" y="300" as="targetPoint" />
          </mxGeometry>
        </mxCell>
        <mxCell id="V55V4ISfxPS5HayoCuuF-77" value="" style="endArrow=none;html=1;rounded=0;strokeColor=#FF0080;fontSize=14;fontColor=#FF0080;entryX=0.5;entryY=0.5;entryDx=0;entryDy=0;entryPerimeter=0;exitX=0.947;exitY=0.3;exitDx=0;exitDy=0;exitPerimeter=0;" parent="1" source="V55V4ISfxPS5HayoCuuF-71" target="V55V4ISfxPS5HayoCuuF-61" edge="1">
          <mxGeometry width="50" height="50" relative="1" as="geometry">
            <mxPoint x="930" y="510" as="sourcePoint" />
            <mxPoint x="980" y="460" as="targetPoint" />
          </mxGeometry>
        </mxCell>
        <mxCell id="V55V4ISfxPS5HayoCuuF-83" value="" style="edgeStyle=none;html=1;endSize=12;endArrow=block;endFill=0;rounded=0;fontSize=14;fontColor=#000000;entryX=0.236;entryY=0.975;entryDx=0;entryDy=0;entryPerimeter=0;" parent="1" edge="1">
          <mxGeometry width="160" relative="1" as="geometry">
            <mxPoint x="608" y="690" as="sourcePoint" />
            <mxPoint x="658.6599999999999" y="642" as="targetPoint" />
          </mxGeometry>
        </mxCell>
        <mxCell id="V55V4ISfxPS5HayoCuuF-84" value="" style="edgeStyle=none;html=1;endSize=12;endArrow=block;endFill=0;rounded=0;fontSize=14;fontColor=#000000;entryX=0.426;entryY=1;entryDx=0;entryDy=0;entryPerimeter=0;" parent="1" target="V55V4ISfxPS5HayoCuuF-71" edge="1">
          <mxGeometry width="160" relative="1" as="geometry">
            <mxPoint x="690" y="694" as="sourcePoint" />
            <mxPoint x="689" y="644" as="targetPoint" />
          </mxGeometry>
        </mxCell>
        <mxCell id="V55V4ISfxPS5HayoCuuF-85" value="Add" style="ellipse;whiteSpace=wrap;html=1;fontSize=14;fontColor=#333333;fillColor=#f5f5f5;strokeColor=#666666;" parent="1" vertex="1">
          <mxGeometry x="560" y="683" width="80" height="30" as="geometry" />
        </mxCell>
        <mxCell id="V55V4ISfxPS5HayoCuuF-86" value="update" style="ellipse;whiteSpace=wrap;html=1;fontSize=14;fontColor=#333333;fillColor=#f5f5f5;strokeColor=#666666;" parent="1" vertex="1">
          <mxGeometry x="650" y="693" width="80" height="30" as="geometry" />
        </mxCell>
        <mxCell id="V55V4ISfxPS5HayoCuuF-87" value="delete" style="ellipse;whiteSpace=wrap;html=1;fontSize=14;fontColor=#333333;fillColor=#f5f5f5;strokeColor=#666666;" parent="1" vertex="1">
          <mxGeometry x="740" y="693" width="80" height="30" as="geometry" />
        </mxCell>
        <mxCell id="V55V4ISfxPS5HayoCuuF-88" value="display" style="ellipse;whiteSpace=wrap;html=1;fontSize=14;fontColor=#333333;fillColor=#f5f5f5;strokeColor=#666666;" parent="1" vertex="1">
          <mxGeometry x="845" y="693" width="80" height="30" as="geometry" />
        </mxCell>
        <mxCell id="V55V4ISfxPS5HayoCuuF-89" value="" style="edgeStyle=none;html=1;endSize=12;endArrow=block;endFill=0;rounded=0;fontSize=14;fontColor=#000000;exitX=0.425;exitY=-0.067;exitDx=0;exitDy=0;exitPerimeter=0;entryX=0.897;entryY=0.925;entryDx=0;entryDy=0;entryPerimeter=0;" parent="1" source="V55V4ISfxPS5HayoCuuF-88" edge="1">
          <mxGeometry width="160" relative="1" as="geometry">
            <mxPoint x="725" y="633" as="sourcePoint" />
            <mxPoint x="780.9450000000002" y="640" as="targetPoint" />
          </mxGeometry>
        </mxCell>
        <mxCell id="V55V4ISfxPS5HayoCuuF-90" value="" style="edgeStyle=none;html=1;endSize=12;endArrow=block;endFill=0;rounded=0;fontSize=14;fontColor=#000000;entryX=0.757;entryY=0.975;entryDx=0;entryDy=0;entryPerimeter=0;" parent="1" edge="1">
          <mxGeometry width="160" relative="1" as="geometry">
            <mxPoint x="779.9954718106674" y="692.997547479335" as="sourcePoint" />
            <mxPoint x="760.4450000000002" y="641.8600000000001" as="targetPoint" />
          </mxGeometry>
        </mxCell>
        <mxCell id="V55V4ISfxPS5HayoCuuF-91" value="Add suggestion" style="ellipse;whiteSpace=wrap;html=1;strokeWidth=2;fontSize=14;fillColor=#f8cecc;strokeColor=#b85450;" parent="1" vertex="1">
          <mxGeometry x="670" y="490" width="110" height="40" as="geometry" />
        </mxCell>
        <mxCell id="V55V4ISfxPS5HayoCuuF-92" value="Send complaint" style="ellipse;whiteSpace=wrap;html=1;strokeWidth=2;fontSize=14;fillColor=#f8cecc;strokeColor=#b85450;" parent="1" vertex="1">
          <mxGeometry x="680" y="550" width="110" height="40" as="geometry" />
        </mxCell>
        <mxCell id="V55V4ISfxPS5HayoCuuF-93" value="" style="endArrow=none;html=1;rounded=0;strokeColor=#FF0080;fontSize=14;fontColor=#FF0080;exitX=1;exitY=0;exitDx=0;exitDy=0;" parent="1" source="V55V4ISfxPS5HayoCuuF-91" edge="1">
          <mxGeometry width="50" height="50" relative="1" as="geometry">
            <mxPoint x="1140" y="390" as="sourcePoint" />
            <mxPoint x="1060" y="300" as="targetPoint" />
          </mxGeometry>
        </mxCell>
        <mxCell id="V55V4ISfxPS5HayoCuuF-94" value="" style="endArrow=none;html=1;rounded=0;strokeColor=#FF0080;fontSize=14;fontColor=#FF0080;exitX=1;exitY=0;exitDx=0;exitDy=0;" parent="1" source="V55V4ISfxPS5HayoCuuF-92" edge="1">
          <mxGeometry width="50" height="50" relative="1" as="geometry">
            <mxPoint x="920" y="410" as="sourcePoint" />
            <mxPoint x="1060" y="300" as="targetPoint" />
          </mxGeometry>
        </mxCell>
        <mxCell id="V55V4ISfxPS5HayoCuuF-95" value="&lt;p align=&quot;center&quot;&gt;&lt;b&gt;&lt;span&gt;Gyms &lt;/span&gt;&lt;/b&gt;&lt;font&gt;&lt;b&gt;&lt;span&gt;management system&lt;/span&gt;&lt;/b&gt;&lt;/font&gt;&lt;/p&gt;" style="text;html=1;strokeColor=none;fillColor=none;align=center;verticalAlign=middle;whiteSpace=wrap;rounded=0;strokeWidth=2;fontSize=14;fontColor=#000000;" parent="1" vertex="1">
          <mxGeometry x="470" y="30" width="360" height="30" as="geometry" />
        </mxCell>
      </root>
    </mxGraphModel>
  </diagram>
</mxfile>
